<?xml version="1.0" encoding="UTF-8"?>
<svg id="icon" xmlns="http://www.w3.org/2000/svg" viewBox="0 0 512 512">
  <path id="mountain" d="M423.02,197.9c-35.95-55.04-73.43-105.99-73.43-105.99-10.4-16.86-34.64-19.8-46.87,6.58l-68.27,120.03-46.8-60.36c-10.4-16.85-36.46-21.06-46.87-4.21L20.07,312.09c-6.17,10.03-13.16,19.53-20.91,28.39,0,0,96.44,46.01,250.19,6.04,199.49-51.87,261.81-22.54,261.81-22.54,0,0-45.92-61.44-88.14-126.09ZM260.85,327.53c-52.68,11.64-82.13,15.95-95.96,17.53l-.13.2s-11.13,2.55-57.15,1.6c-43.35-.89-81.65-15.03-81.65-15.03l117.49-155.3c14.45-22.33,22.85-19.15,38.3,0,5.27,6.53,30.68,40.92,42.96,57.57l23.72-7.08s50-89.09,58.28-104.03c19.05-34.36,24.24-30.64,39.51-9.09,8.53,12.05,31.11,45.11,62.83,91.72,37.27,54.74,67.05,96.66,67.05,96.66,0,0-39.76-13.53-215.25,25.25Z" style="fill: purple;"/>
  <g id="icon-2" data-name="icon">
    <path id="ridge" d="M235.33,219.52l-48.89,74.51s-1.2,8.26,3.96,10.8c2.98,1.56,6.58,1.34,9.34-.58l47.85-76.85-12.25-7.88ZM235.33,219.52" style="fill: purple;"/>
    <path id="water" d="M501.41,392.13s-74-47.3-253.87,5.18c-148.35,43.28-237.62-5.87-237.62-5.87,0,0-7.74-4.31-7.74,7.4,0,8.29,5.91,10.7,5.91,10.7,0,0,91.1,49.15,239.44,5.87,179.87-52.48,252.04-7.01,252.04-7.01,0,0,7.74,2.53,7.74-6.94.03-4-2.28-7.65-5.91-9.34h0ZM501.41,392.13" style="fill: aqua;"/>
  </g>
</svg>